<svg width="51" height="50" viewBox="0 0 51 50" fill="none" xmlns="http://www.w3.org/2000/svg">
<g clip-path="url(#clip0_112_803)">
<g filter="url(#filter0_bdi_112_803)">
<g clip-path="url(#clip1_112_803)">
<rect x="1.92505" y="1" width="48" height="48" rx="12" fill="url(#paint0_linear_112_803)" fill-opacity="0.04" shape-rendering="crispEdges"/>
<g style="mix-blend-mode:plus-lighter" opacity="0.5" filter="url(#filter1_f_112_803)">
<path fill-rule="evenodd" clip-rule="evenodd" d="M25.925 25C25.925 22.5147 27.9398 20.5 30.425 20.5C32.9103 20.5 34.925 22.5147 34.925 25C34.925 27.4853 32.9103 29.5 30.425 29.5C27.9398 29.5 25.925 27.4853 25.925 25Z" fill="#1ABCFE"/>
<path fill-rule="evenodd" clip-rule="evenodd" d="M16.925 34C16.925 31.5147 18.9398 29.5 21.425 29.5H25.925V34C25.925 36.4853 23.9103 38.5 21.425 38.5C18.9398 38.5 16.925 36.4853 16.925 34Z" fill="#0ACF83"/>
<path fill-rule="evenodd" clip-rule="evenodd" d="M25.925 11.5V20.5H30.425C32.9103 20.5 34.925 18.4853 34.925 16C34.925 13.5147 32.9103 11.5 30.425 11.5H25.925Z" fill="#FF7262"/>
<path fill-rule="evenodd" clip-rule="evenodd" d="M16.925 16C16.925 18.4853 18.9398 20.5 21.425 20.5H25.925V11.5H21.425C18.9398 11.5 16.925 13.5147 16.925 16Z" fill="#F24E1E"/>
<path fill-rule="evenodd" clip-rule="evenodd" d="M16.925 25C16.925 27.4853 18.9398 29.5 21.425 29.5H25.925V20.5H21.425C18.9398 20.5 16.925 22.5147 16.925 25Z" fill="#A259FF"/>
</g>
<path fill-rule="evenodd" clip-rule="evenodd" d="M25.925 25C25.925 22.5147 27.9398 20.5 30.425 20.5C32.9103 20.5 34.925 22.5147 34.925 25C34.925 27.4853 32.9103 29.5 30.425 29.5C27.9398 29.5 25.925 27.4853 25.925 25Z" fill="#1ABCFE"/>
<path fill-rule="evenodd" clip-rule="evenodd" d="M16.925 34C16.925 31.5147 18.9398 29.5 21.425 29.5H25.925V34C25.925 36.4853 23.9103 38.5 21.425 38.5C18.9398 38.5 16.925 36.4853 16.925 34Z" fill="#0ACF83"/>
<path fill-rule="evenodd" clip-rule="evenodd" d="M25.925 11.5V20.5H30.425C32.9103 20.5 34.925 18.4853 34.925 16C34.925 13.5147 32.9103 11.5 30.425 11.5H25.925Z" fill="#FF7262"/>
<path fill-rule="evenodd" clip-rule="evenodd" d="M16.925 16C16.925 18.4853 18.9398 20.5 21.425 20.5H25.925V11.5H21.425C18.9398 11.5 16.925 13.5147 16.925 16Z" fill="#F24E1E"/>
<path fill-rule="evenodd" clip-rule="evenodd" d="M16.925 25C16.925 27.4853 18.9398 29.5 21.425 29.5H25.925V20.5H21.425C18.9398 20.5 16.925 22.5147 16.925 25Z" fill="#A259FF"/>
<g filter="url(#filter2_f_112_803)">
<ellipse cx="26.425" cy="48.5" rx="11.5" ry="6.5" fill="#F35A2E"/>
</g>
</g>
<rect x="1.92505" y="1" width="48" height="48" rx="12" stroke="url(#paint1_linear_112_803)" stroke-opacity="0.5" stroke-width="0.8" shape-rendering="crispEdges"/>
</g>
<g style="mix-blend-mode:screen" filter="url(#filter3_f_112_803)">
<circle cx="18.925" cy="18" r="9" fill="white" fill-opacity="0.18"/>
</g>
</g>
<rect x="1.42505" y="0.5" width="49" height="49" rx="12.5" stroke="url(#paint2_linear_112_803)"/>
<defs>
<filter id="filter0_bdi_112_803" x="-18.475" y="-19.4" width="92.8" height="88.8" filterUnits="userSpaceOnUse" color-interpolation-filters="sRGB">
<feFlood flood-opacity="0" result="BackgroundImageFix"/>
<feGaussianBlur in="BackgroundImageFix" stdDeviation="10"/>
<feComposite in2="SourceAlpha" operator="in" result="effect1_backgroundBlur_112_803"/>
<feColorMatrix in="SourceAlpha" type="matrix" values="0 0 0 0 0 0 0 0 0 0 0 0 0 0 0 0 0 0 127 0" result="hardAlpha"/>
<feOffset dx="8" dy="4"/>
<feGaussianBlur stdDeviation="8"/>
<feComposite in2="hardAlpha" operator="out"/>
<feColorMatrix type="matrix" values="0 0 0 0 0 0 0 0 0 0 0 0 0 0 0 0 0 0 0.08 0"/>
<feBlend mode="normal" in2="effect1_backgroundBlur_112_803" result="effect2_dropShadow_112_803"/>
<feBlend mode="normal" in="SourceGraphic" in2="effect2_dropShadow_112_803" result="shape"/>
<feColorMatrix in="SourceAlpha" type="matrix" values="0 0 0 0 0 0 0 0 0 0 0 0 0 0 0 0 0 0 127 0" result="hardAlpha"/>
<feOffset/>
<feGaussianBlur stdDeviation="4"/>
<feComposite in2="hardAlpha" operator="arithmetic" k2="-1" k3="1"/>
<feColorMatrix type="matrix" values="0 0 0 0 0.588675 0 0 0 0 0.270833 0 0 0 0 1 0 0 0 0.45 0"/>
<feBlend mode="normal" in2="shape" result="effect3_innerShadow_112_803"/>
</filter>
<filter id="filter1_f_112_803" x="-2.07495" y="-3" width="56" height="56" filterUnits="userSpaceOnUse" color-interpolation-filters="sRGB">
<feFlood flood-opacity="0" result="BackgroundImageFix"/>
<feBlend mode="normal" in="SourceGraphic" in2="BackgroundImageFix" result="shape"/>
<feGaussianBlur stdDeviation="6" result="effect1_foregroundBlur_112_803"/>
</filter>
<filter id="filter2_f_112_803" x="-3.07495" y="24" width="59" height="49" filterUnits="userSpaceOnUse" color-interpolation-filters="sRGB">
<feFlood flood-opacity="0" result="BackgroundImageFix"/>
<feBlend mode="normal" in="SourceGraphic" in2="BackgroundImageFix" result="shape"/>
<feGaussianBlur stdDeviation="9" result="effect1_foregroundBlur_112_803"/>
</filter>
<filter id="filter3_f_112_803" x="-10.075" y="-11" width="58" height="58" filterUnits="userSpaceOnUse" color-interpolation-filters="sRGB">
<feFlood flood-opacity="0" result="BackgroundImageFix"/>
<feBlend mode="normal" in="SourceGraphic" in2="BackgroundImageFix" result="shape"/>
<feGaussianBlur stdDeviation="10" result="effect1_foregroundBlur_112_803"/>
</filter>
<linearGradient id="paint0_linear_112_803" x1="1.92505" y1="1" x2="49.925" y2="49" gradientUnits="userSpaceOnUse">
<stop stop-color="#F8FBFF"/>
<stop offset="1" stop-color="white" stop-opacity="0"/>
</linearGradient>
<linearGradient id="paint1_linear_112_803" x1="2.92505" y1="-5.85375e-08" x2="48.4251" y2="49" gradientUnits="userSpaceOnUse">
<stop stop-color="#D8D8D8" stop-opacity="0.05"/>
<stop offset="1" stop-color="white" stop-opacity="0.4"/>
</linearGradient>
<linearGradient id="paint2_linear_112_803" x1="25.0742" y1="49" x2="26.7759" y2="0.999999" gradientUnits="userSpaceOnUse">
<stop stop-color="#0ACF83"/>
<stop offset="0.215" stop-color="#1ABCFE"/>
<stop offset="0.42" stop-color="#A259FF"/>
<stop offset="0.715" stop-color="#F24E1E"/>
<stop offset="1" stop-color="#FF7262"/>
</linearGradient>
<clipPath id="clip0_112_803">
<rect x="1.92505" y="1" width="48" height="48" rx="12" fill="white"/>
</clipPath>
<clipPath id="clip1_112_803">
<rect x="1.92505" y="1" width="48" height="48" rx="12" fill="white"/>
</clipPath>
</defs>
</svg>
