<svg width="50" height="50" viewBox="0 0 50 50" fill="none" xmlns="http://www.w3.org/2000/svg">
<g clip-path="url(#clip0_112_821)">
<g filter="url(#filter0_bdi_112_821)">
<g clip-path="url(#clip1_112_821)">
<rect x="1" y="1" width="48" height="48" rx="12" fill="url(#paint0_linear_112_821)" fill-opacity="0.04" shape-rendering="crispEdges"/>
<g style="mix-blend-mode:plus-lighter" opacity="0.5" filter="url(#filter1_f_112_821)">
<g clip-path="url(#clip2_112_821)">
<path d="M13.4147 38.0176L11.075 9.4231L39.0174 9.48056L36.5433 38.0176L25.1516 41.3162L13.4147 38.0176Z" fill="#E34F26"/>
<path d="M25.1516 38.5546V12.1464L36.6585 12.1847L34.6065 35.812L25.1516 38.5546Z" fill="#EF652A"/>
<path d="M33.4942 18.7437L33.8201 15.2532H16.1188L17.0968 25.9547H29.3132L28.8341 30.519L24.9218 31.5736L20.9519 30.423L20.741 27.6997H17.2311L17.7106 33.2614L24.9215 35.275L32.1899 33.2614L33.1679 22.4067H20.3381L19.9737 18.7437H33.4942Z" fill="white"/>
</g>
</g>
<g filter="url(#filter2_f_112_821)">
<ellipse cx="24.5" cy="48.5" rx="11.5" ry="6.5" fill="#EF652A"/>
</g>
<path d="M13.3397 37.648L11 9.05347L38.9424 9.11093L36.4684 37.648L25.0767 40.9466L13.3397 37.648Z" fill="#E34F26"/>
<path d="M25.0767 38.185V11.7767L36.5835 11.815L34.5316 35.4424L25.0767 38.185Z" fill="#EF652A"/>
<path d="M33.4193 18.3741L33.7451 14.8835H16.0438L17.0218 25.585H29.2383L28.7592 30.1493L24.8468 31.2039L20.877 30.0533L20.666 27.3301H17.1561L17.6356 32.8917L24.8466 34.9054L32.115 32.8917L33.093 22.037H20.2631L19.8987 18.3741H33.4193Z" fill="white"/>
</g>
<rect x="1" y="1" width="48" height="48" rx="12" stroke="url(#paint1_linear_112_821)" stroke-opacity="0.5" stroke-width="0.8" shape-rendering="crispEdges"/>
</g>
<g style="mix-blend-mode:screen" filter="url(#filter3_f_112_821)">
<circle cx="18" cy="18" r="9" fill="#EF652A"/>
</g>
</g>
<rect x="0.5" y="0.5" width="49" height="49" rx="12.5" stroke="url(#paint2_linear_112_821)"/>
<defs>
<filter id="filter0_bdi_112_821" x="-19.4" y="-19.4" width="92.8" height="88.8" filterUnits="userSpaceOnUse" color-interpolation-filters="sRGB">
<feFlood flood-opacity="0" result="BackgroundImageFix"/>
<feGaussianBlur in="BackgroundImageFix" stdDeviation="10"/>
<feComposite in2="SourceAlpha" operator="in" result="effect1_backgroundBlur_112_821"/>
<feColorMatrix in="SourceAlpha" type="matrix" values="0 0 0 0 0 0 0 0 0 0 0 0 0 0 0 0 0 0 127 0" result="hardAlpha"/>
<feOffset dx="8" dy="4"/>
<feGaussianBlur stdDeviation="8"/>
<feComposite in2="hardAlpha" operator="out"/>
<feColorMatrix type="matrix" values="0 0 0 0 0 0 0 0 0 0 0 0 0 0 0 0 0 0 0.08 0"/>
<feBlend mode="normal" in2="effect1_backgroundBlur_112_821" result="effect2_dropShadow_112_821"/>
<feBlend mode="normal" in="SourceGraphic" in2="effect2_dropShadow_112_821" result="shape"/>
<feColorMatrix in="SourceAlpha" type="matrix" values="0 0 0 0 0 0 0 0 0 0 0 0 0 0 0 0 0 0 127 0" result="hardAlpha"/>
<feOffset/>
<feGaussianBlur stdDeviation="4"/>
<feComposite in2="hardAlpha" operator="arithmetic" k2="-1" k3="1"/>
<feColorMatrix type="matrix" values="0 0 0 0 0.826389 0 0 0 0 0.942083 0 0 0 0 0.991667 0 0 0 0.32 0"/>
<feBlend mode="normal" in2="shape" result="effect3_innerShadow_112_821"/>
</filter>
<filter id="filter1_f_112_821" x="-3" y="-3" width="56" height="56.3696" filterUnits="userSpaceOnUse" color-interpolation-filters="sRGB">
<feFlood flood-opacity="0" result="BackgroundImageFix"/>
<feBlend mode="normal" in="SourceGraphic" in2="BackgroundImageFix" result="shape"/>
<feGaussianBlur stdDeviation="6" result="effect1_foregroundBlur_112_821"/>
</filter>
<filter id="filter2_f_112_821" x="-5" y="24" width="59" height="49" filterUnits="userSpaceOnUse" color-interpolation-filters="sRGB">
<feFlood flood-opacity="0" result="BackgroundImageFix"/>
<feBlend mode="normal" in="SourceGraphic" in2="BackgroundImageFix" result="shape"/>
<feGaussianBlur stdDeviation="9" result="effect1_foregroundBlur_112_821"/>
</filter>
<filter id="filter3_f_112_821" x="-11" y="-11" width="58" height="58" filterUnits="userSpaceOnUse" color-interpolation-filters="sRGB">
<feFlood flood-opacity="0" result="BackgroundImageFix"/>
<feBlend mode="normal" in="SourceGraphic" in2="BackgroundImageFix" result="shape"/>
<feGaussianBlur stdDeviation="10" result="effect1_foregroundBlur_112_821"/>
</filter>
<linearGradient id="paint0_linear_112_821" x1="1" y1="1" x2="49" y2="49" gradientUnits="userSpaceOnUse">
<stop stop-color="#EF652A"/>
<stop offset="1" stop-color="white" stop-opacity="0"/>
</linearGradient>
<linearGradient id="paint1_linear_112_821" x1="2" y1="-5.85375e-08" x2="47.5" y2="49" gradientUnits="userSpaceOnUse">
<stop stop-color="#EF652A"/>
<stop offset="1" stop-color="#EB6632"/>
</linearGradient>
<linearGradient id="paint2_linear_112_821" x1="42.6835" y1="49" x2="7.31652" y2="0.999997" gradientUnits="userSpaceOnUse">
<stop stop-color="#EF652A"/>
<stop offset="1" stop-color="#E34F26"/>
</linearGradient>
<clipPath id="clip0_112_821">
<rect x="1" y="1" width="48" height="48" rx="12" fill="white"/>
</clipPath>
<clipPath id="clip1_112_821">
<rect x="1" y="1" width="48" height="48" rx="12" fill="white"/>
</clipPath>
<clipPath id="clip2_112_821">
<rect width="27.9424" height="32" fill="white" transform="translate(11.075 9.36963)"/>
</clipPath>
</defs>
</svg>
