<svg width="50" height="50" viewBox="0 0 50 50" fill="none" xmlns="http://www.w3.org/2000/svg">
<g clip-path="url(#clip0_112_851)">
<g filter="url(#filter0_bdi_112_851)">
<g clip-path="url(#clip1_112_851)">
<rect x="1" y="1" width="48" height="48" rx="12" fill="url(#paint0_linear_112_851)" fill-opacity="0.04" shape-rendering="crispEdges"/>
<g style="mix-blend-mode:plus-lighter" opacity="0.5" filter="url(#filter1_f_112_851)">
<g clip-path="url(#clip2_112_851)">
<path d="M13.4147 37.648L11.075 9.05347L39.0174 9.11093L36.5433 37.648L25.1516 40.9466L13.4147 37.648Z" fill="#E9CA32"/>
<path d="M25.1516 38.185V11.7767L36.6585 11.815L34.6065 35.4424L25.1516 38.185Z" fill="#FFDE25"/>
<path d="M23.9194 14.9124H20.8773V32.489L18.5112 32.0383V29.6722L15.6945 29.2216V34.5171L23.9194 36.6579V14.9124ZM26.2015 14.9124H34.6232L34.0598 18.2812H29.4164V23.8095H34.0598L33.4965 34.9678L26.2015 36.6579V33.1651L31.1304 31.475L31.415 26.8555L26.2015 27.6104V14.9124Z" fill="white"/>
</g>
</g>
<g filter="url(#filter2_f_112_851)">
<ellipse cx="25.5" cy="48.5" rx="11.5" ry="6.5" fill="#E9CA32"/>
</g>
<g clip-path="url(#clip3_112_851)">
<path d="M13.3397 37.648L11 9.05347L38.9424 9.11093L36.4684 37.648L25.0767 40.9466L13.3397 37.648Z" fill="#E9CA32"/>
<path d="M25.0767 38.185V11.7767L36.5835 11.815L34.5316 35.4424L25.0767 38.185Z" fill="#FFDE25"/>
<path d="M23.8445 14.9124H20.8024V32.489L18.4363 32.0383V29.6722L15.6195 29.2216V34.5171L23.8445 36.6579V14.9124ZM26.1265 14.9124H34.5482L33.9849 18.2812H29.3415V23.8095H33.9849L33.4215 34.9678L26.1265 36.6579V33.1651L31.0554 31.475L31.34 26.8555L26.1265 27.6104V14.9124Z" fill="white"/>
</g>
</g>
<rect x="1" y="1" width="48" height="48" rx="12" stroke="url(#paint1_linear_112_851)" stroke-opacity="0.5" stroke-width="0.8" shape-rendering="crispEdges"/>
</g>
<g style="mix-blend-mode:screen" filter="url(#filter3_f_112_851)">
<circle cx="18" cy="18" r="9" fill="#1B73BA" fill-opacity="0.18"/>
</g>
</g>
<rect x="0.5" y="0.5" width="49" height="49" rx="12.5" stroke="url(#paint2_linear_112_851)"/>
<defs>
<filter id="filter0_bdi_112_851" x="-19.4" y="-19.4" width="92.8" height="88.8" filterUnits="userSpaceOnUse" color-interpolation-filters="sRGB">
<feFlood flood-opacity="0" result="BackgroundImageFix"/>
<feGaussianBlur in="BackgroundImageFix" stdDeviation="10"/>
<feComposite in2="SourceAlpha" operator="in" result="effect1_backgroundBlur_112_851"/>
<feColorMatrix in="SourceAlpha" type="matrix" values="0 0 0 0 0 0 0 0 0 0 0 0 0 0 0 0 0 0 127 0" result="hardAlpha"/>
<feOffset dx="8" dy="4"/>
<feGaussianBlur stdDeviation="8"/>
<feComposite in2="hardAlpha" operator="out"/>
<feColorMatrix type="matrix" values="0 0 0 0 0 0 0 0 0 0 0 0 0 0 0 0 0 0 0.08 0"/>
<feBlend mode="normal" in2="effect1_backgroundBlur_112_851" result="effect2_dropShadow_112_851"/>
<feBlend mode="normal" in="SourceGraphic" in2="effect2_dropShadow_112_851" result="shape"/>
<feColorMatrix in="SourceAlpha" type="matrix" values="0 0 0 0 0 0 0 0 0 0 0 0 0 0 0 0 0 0 127 0" result="hardAlpha"/>
<feOffset/>
<feGaussianBlur stdDeviation="4"/>
<feComposite in2="hardAlpha" operator="arithmetic" k2="-1" k3="1"/>
<feColorMatrix type="matrix" values="0 0 0 0 0.826389 0 0 0 0 0.942083 0 0 0 0 0.991667 0 0 0 0.32 0"/>
<feBlend mode="normal" in2="shape" result="effect3_innerShadow_112_851"/>
</filter>
<filter id="filter1_f_112_851" x="-3" y="-3" width="56" height="56" filterUnits="userSpaceOnUse" color-interpolation-filters="sRGB">
<feFlood flood-opacity="0" result="BackgroundImageFix"/>
<feBlend mode="normal" in="SourceGraphic" in2="BackgroundImageFix" result="shape"/>
<feGaussianBlur stdDeviation="6" result="effect1_foregroundBlur_112_851"/>
</filter>
<filter id="filter2_f_112_851" x="-4" y="24" width="59" height="49" filterUnits="userSpaceOnUse" color-interpolation-filters="sRGB">
<feFlood flood-opacity="0" result="BackgroundImageFix"/>
<feBlend mode="normal" in="SourceGraphic" in2="BackgroundImageFix" result="shape"/>
<feGaussianBlur stdDeviation="9" result="effect1_foregroundBlur_112_851"/>
</filter>
<filter id="filter3_f_112_851" x="-11" y="-11" width="58" height="58" filterUnits="userSpaceOnUse" color-interpolation-filters="sRGB">
<feFlood flood-opacity="0" result="BackgroundImageFix"/>
<feBlend mode="normal" in="SourceGraphic" in2="BackgroundImageFix" result="shape"/>
<feGaussianBlur stdDeviation="10" result="effect1_foregroundBlur_112_851"/>
</filter>
<linearGradient id="paint0_linear_112_851" x1="1" y1="1" x2="49" y2="49" gradientUnits="userSpaceOnUse">
<stop stop-color="#E9CA32"/>
<stop offset="1" stop-color="white" stop-opacity="0"/>
</linearGradient>
<linearGradient id="paint1_linear_112_851" x1="2" y1="-5.85375e-08" x2="47.5" y2="49" gradientUnits="userSpaceOnUse">
<stop stop-color="#FFDE25"/>
<stop offset="1" stop-color="#E9CA32"/>
</linearGradient>
<linearGradient id="paint2_linear_112_851" x1="42.6835" y1="49" x2="7.31652" y2="0.999997" gradientUnits="userSpaceOnUse">
<stop stop-color="#FFDE25"/>
<stop offset="1" stop-color="#E9CA32"/>
</linearGradient>
<clipPath id="clip0_112_851">
<rect x="1" y="1" width="48" height="48" rx="12" fill="white"/>
</clipPath>
<clipPath id="clip1_112_851">
<rect x="1" y="1" width="48" height="48" rx="12" fill="white"/>
</clipPath>
<clipPath id="clip2_112_851">
<rect width="27.9424" height="32" fill="white" transform="translate(11.075 9)"/>
</clipPath>
<clipPath id="clip3_112_851">
<rect width="27.9424" height="32" fill="white" transform="translate(11 9)"/>
</clipPath>
</defs>
</svg>
