<svg width="50" height="50" viewBox="0 0 50 50" fill="none" xmlns="http://www.w3.org/2000/svg">
<g clip-path="url(#clip0_112_789)">
<g filter="url(#filter0_bdi_112_789)">
<g clip-path="url(#clip1_112_789)">
<rect x="1" y="1" width="48" height="48" rx="12" fill="url(#paint0_linear_112_789)" fill-opacity="0.04" shape-rendering="crispEdges"/>
<g filter="url(#filter1_f_112_789)">
<ellipse cx="25.5" cy="48.5" rx="11.5" ry="6.5" fill="url(#paint1_linear_112_789)"/>
</g>
<path d="M35.1375 20.075C34.8 19.9625 34.4625 19.8562 34.125 19.7562C34.1812 19.525 34.2313 19.2937 34.2812 19.0625C35.05 15.3375 34.5437 12.3437 32.8375 11.3562C31.1938 10.4125 28.5125 11.3937 25.8 13.7562C25.5312 13.9875 25.2687 14.2312 25.0187 14.475C24.85 14.3125 24.675 14.15 24.5 13.9937C21.6562 11.4687 18.8063 10.4062 17.1 11.4C15.4625 12.35 14.975 15.1687 15.6625 18.6937C15.7312 19.0437 15.8063 19.3875 15.8938 19.7375C15.4938 19.85 15.1 19.9749 14.7312 20.1062C11.3937 21.2625 9 23.0875 9 24.975C9 26.925 11.55 28.8812 15.0188 30.0687C15.3 30.1625 15.5813 30.2562 15.8688 30.3375C15.775 30.7125 15.6937 31.0812 15.6188 31.4625C14.9625 34.9312 15.475 37.6812 17.1125 38.625C18.8 39.6 21.6375 38.6 24.4 36.1812C24.6187 35.9874 24.8375 35.7875 25.0562 35.575C25.3312 35.8437 25.6187 36.1 25.9062 36.35C28.5812 38.65 31.225 39.5812 32.8563 38.6375C34.5438 37.6625 35.0938 34.7062 34.3813 31.1062C34.325 30.8312 34.2625 30.55 34.1938 30.2625C34.3938 30.2062 34.5875 30.1437 34.7812 30.0812C38.3875 28.8874 41 26.9562 41 24.975C41 23.0812 38.5375 21.2437 35.1375 20.075ZM26.6812 14.7687C29.0063 12.7437 31.175 11.95 32.1625 12.5187C33.2188 13.125 33.625 15.575 32.9625 18.7937C32.9187 19.0062 32.875 19.2125 32.8188 19.4187C31.4312 19.1062 30.025 18.8812 28.6125 18.7562C27.8 17.5937 26.9125 16.4812 25.95 15.4375C26.1938 15.2062 26.4312 14.9875 26.6812 14.7687ZM19.45 28.2187C19.7688 28.7625 20.0938 29.3062 20.4375 29.8375C19.4625 29.7312 18.4938 29.5749 17.5375 29.3687C17.8125 28.4687 18.1562 27.5375 18.5562 26.5875C18.8438 27.1374 19.1375 27.6812 19.45 28.2187ZM17.5562 20.7C18.4562 20.5 19.4125 20.3375 20.4062 20.2125C20.075 20.7312 19.75 21.2625 19.4438 21.8C19.1375 22.3312 18.8375 22.875 18.5562 23.425C18.1625 22.4937 17.8312 21.5812 17.5562 20.7ZM19.2688 25.0062C19.6813 24.1437 20.1312 23.3 20.6062 22.4687C21.0813 21.6375 21.5938 20.8312 22.1313 20.0375C23.0688 19.9687 24.025 19.9312 25 19.9312C25.975 19.9312 26.9375 19.9687 27.8687 20.0375C28.4 20.825 28.9062 21.6312 29.3875 22.4562C29.8688 23.2812 30.3188 24.125 30.7437 24.9812C30.325 25.8437 29.875 26.6937 29.3937 27.5312C28.9187 28.3624 28.4125 29.1687 27.8813 29.9687C26.95 30.0375 25.9813 30.0687 25 30.0687C24.0188 30.0687 23.0687 30.0375 22.15 29.9812C21.6062 29.1875 21.0938 28.375 20.6125 27.5437C20.1313 26.7125 19.6875 25.8687 19.2688 25.0062ZM30.5562 28.2062C30.875 27.6562 31.175 27.1 31.4688 26.5375C31.8687 27.4437 32.2188 28.3624 32.525 29.3062C31.5562 29.525 30.575 29.6937 29.5875 29.8062C29.925 29.2812 30.2437 28.7437 30.5562 28.2062ZM31.4562 23.425C31.1625 22.875 30.8625 22.325 30.55 21.7875C30.2437 21.2562 29.925 20.7312 29.5938 20.2125C30.6 20.3375 31.5625 20.5062 32.4625 20.7125C32.175 21.6375 31.8375 22.5375 31.4562 23.425ZM25.0125 16.3937C25.6688 17.1062 26.2875 17.8562 26.8625 18.6312C25.625 18.575 24.3813 18.575 23.1438 18.6312C23.7563 17.825 24.3875 17.075 25.0125 16.3937ZM17.7625 12.5625C18.8125 11.95 21.1438 12.825 23.6 15C23.7563 15.1375 23.9125 15.2875 24.075 15.4375C23.1062 16.4812 22.2125 17.5937 21.3938 18.7562C19.9812 18.8812 18.5813 19.1 17.1938 19.4062C17.1125 19.0875 17.0437 18.7625 16.975 18.4375C16.3875 15.4125 16.775 13.1312 17.7625 12.5625ZM16.2312 29.0375C15.9688 28.9625 15.7125 28.8812 15.4563 28.7937C14.125 28.375 12.6125 27.7125 11.5187 26.8437C10.8875 26.4062 10.4625 25.7312 10.3438 24.975C10.3438 23.8312 12.3187 22.3687 15.1687 21.375C15.525 21.25 15.8875 21.1375 16.25 21.0312C16.675 22.3875 17.1875 23.7187 17.7812 25.0062C17.1812 26.3125 16.6625 27.6625 16.2312 29.0375ZM23.5188 35.1625C22.4875 36.1062 21.2937 36.8562 19.9937 37.3687C19.3 37.6999 18.5 37.7312 17.7875 37.45C16.7938 36.875 16.3812 34.6687 16.9437 31.7C17.0125 31.35 17.0875 31 17.175 30.6562C18.575 30.9562 19.9875 31.1624 21.4187 31.2687C22.2437 32.4375 23.15 33.5562 24.1187 34.6062C23.9187 34.8 23.7188 34.9875 23.5188 35.1625ZM25.05 33.6437C24.4125 32.9562 23.775 32.1937 23.1562 31.375C23.7563 31.4 24.375 31.4125 25 31.4125C25.6437 31.4125 26.275 31.4 26.9 31.3687C26.325 32.1625 25.7062 32.9187 25.05 33.6437ZM33.2188 35.5187C33.1625 36.2812 32.7875 36.9937 32.1875 37.475C31.1938 38.05 29.075 37.2999 26.7875 35.3375C26.525 35.1124 26.2625 34.8687 25.9937 34.6187C26.95 33.5625 27.8313 32.4437 28.6313 31.2687C30.0625 31.15 31.4875 30.9312 32.8937 30.6124C32.9562 30.8687 33.0125 31.125 33.0625 31.375C33.3687 32.725 33.4188 34.1312 33.2188 35.5187ZM34.3563 28.7999C34.1813 28.8562 34.0063 28.9125 33.825 28.9625C33.3875 27.6 32.85 26.2687 32.2313 24.975C32.8313 23.7 33.3375 22.3875 33.7625 21.0437C34.0875 21.1375 34.4 21.2374 34.7 21.3375C37.6125 22.3375 39.6562 23.825 39.6562 24.9625C39.6562 26.1875 37.475 27.7687 34.3563 28.7999ZM25 27.8624C26.5812 27.8624 27.8625 26.5812 27.8625 25C27.8625 23.4187 26.5812 22.1375 25 22.1375C23.4187 22.1375 22.1375 23.4187 22.1375 25C22.1375 26.5812 23.4187 27.8624 25 27.8624Z" fill="url(#paint2_linear_112_789)"/>
<g filter="url(#filter2_f_112_789)">
<path d="M35.1375 20.075C34.8 19.9625 34.4625 19.8562 34.125 19.7562C34.1812 19.525 34.2313 19.2937 34.2812 19.0625C35.05 15.3375 34.5437 12.3437 32.8375 11.3562C31.1938 10.4125 28.5125 11.3937 25.8 13.7562C25.5312 13.9875 25.2687 14.2312 25.0187 14.475C24.85 14.3125 24.675 14.15 24.5 13.9937C21.6562 11.4687 18.8063 10.4062 17.1 11.4C15.4625 12.35 14.975 15.1687 15.6625 18.6937C15.7312 19.0437 15.8063 19.3875 15.8938 19.7375C15.4938 19.85 15.1 19.9749 14.7312 20.1062C11.3937 21.2625 9 23.0875 9 24.975C9 26.925 11.55 28.8812 15.0188 30.0687C15.3 30.1625 15.5813 30.2562 15.8688 30.3375C15.775 30.7125 15.6937 31.0812 15.6188 31.4625C14.9625 34.9312 15.475 37.6812 17.1125 38.625C18.8 39.6 21.6375 38.6 24.4 36.1812C24.6187 35.9874 24.8375 35.7875 25.0562 35.575C25.3312 35.8437 25.6187 36.1 25.9062 36.35C28.5812 38.65 31.225 39.5812 32.8563 38.6375C34.5438 37.6625 35.0938 34.7062 34.3813 31.1062C34.325 30.8312 34.2625 30.55 34.1938 30.2625C34.3938 30.2062 34.5875 30.1437 34.7812 30.0812C38.3875 28.8874 41 26.9562 41 24.975C41 23.0812 38.5375 21.2437 35.1375 20.075ZM26.6812 14.7687C29.0063 12.7437 31.175 11.95 32.1625 12.5187C33.2188 13.125 33.625 15.575 32.9625 18.7937C32.9187 19.0062 32.875 19.2125 32.8188 19.4187C31.4312 19.1062 30.025 18.8812 28.6125 18.7562C27.8 17.5937 26.9125 16.4812 25.95 15.4375C26.1938 15.2062 26.4312 14.9875 26.6812 14.7687ZM19.45 28.2187C19.7688 28.7625 20.0938 29.3062 20.4375 29.8375C19.4625 29.7312 18.4938 29.5749 17.5375 29.3687C17.8125 28.4687 18.1562 27.5375 18.5562 26.5875C18.8438 27.1374 19.1375 27.6812 19.45 28.2187ZM17.5562 20.7C18.4562 20.5 19.4125 20.3375 20.4062 20.2125C20.075 20.7312 19.75 21.2625 19.4438 21.8C19.1375 22.3312 18.8375 22.875 18.5562 23.425C18.1625 22.4937 17.8312 21.5812 17.5562 20.7ZM19.2688 25.0062C19.6813 24.1437 20.1312 23.3 20.6062 22.4687C21.0813 21.6375 21.5938 20.8312 22.1313 20.0375C23.0688 19.9687 24.025 19.9312 25 19.9312C25.975 19.9312 26.9375 19.9687 27.8687 20.0375C28.4 20.825 28.9062 21.6312 29.3875 22.4562C29.8688 23.2812 30.3188 24.125 30.7437 24.9812C30.325 25.8437 29.875 26.6937 29.3937 27.5312C28.9187 28.3624 28.4125 29.1687 27.8813 29.9687C26.95 30.0375 25.9813 30.0687 25 30.0687C24.0188 30.0687 23.0687 30.0375 22.15 29.9812C21.6062 29.1875 21.0938 28.375 20.6125 27.5437C20.1313 26.7125 19.6875 25.8687 19.2688 25.0062ZM30.5562 28.2062C30.875 27.6562 31.175 27.1 31.4688 26.5375C31.8687 27.4437 32.2188 28.3624 32.525 29.3062C31.5562 29.525 30.575 29.6937 29.5875 29.8062C29.925 29.2812 30.2437 28.7437 30.5562 28.2062ZM31.4562 23.425C31.1625 22.875 30.8625 22.325 30.55 21.7875C30.2437 21.2562 29.925 20.7312 29.5938 20.2125C30.6 20.3375 31.5625 20.5062 32.4625 20.7125C32.175 21.6375 31.8375 22.5375 31.4562 23.425ZM25.0125 16.3937C25.6688 17.1062 26.2875 17.8562 26.8625 18.6312C25.625 18.575 24.3813 18.575 23.1438 18.6312C23.7563 17.825 24.3875 17.075 25.0125 16.3937ZM17.7625 12.5625C18.8125 11.95 21.1438 12.825 23.6 15C23.7563 15.1375 23.9125 15.2875 24.075 15.4375C23.1062 16.4812 22.2125 17.5937 21.3938 18.7562C19.9812 18.8812 18.5813 19.1 17.1938 19.4062C17.1125 19.0875 17.0437 18.7625 16.975 18.4375C16.3875 15.4125 16.775 13.1312 17.7625 12.5625ZM16.2312 29.0375C15.9688 28.9625 15.7125 28.8812 15.4563 28.7937C14.125 28.375 12.6125 27.7125 11.5187 26.8437C10.8875 26.4062 10.4625 25.7312 10.3438 24.975C10.3438 23.8312 12.3187 22.3687 15.1687 21.375C15.525 21.25 15.8875 21.1375 16.25 21.0312C16.675 22.3875 17.1875 23.7187 17.7812 25.0062C17.1812 26.3125 16.6625 27.6625 16.2312 29.0375ZM23.5188 35.1625C22.4875 36.1062 21.2937 36.8562 19.9937 37.3687C19.3 37.6999 18.5 37.7312 17.7875 37.45C16.7938 36.875 16.3812 34.6687 16.9437 31.7C17.0125 31.35 17.0875 31 17.175 30.6562C18.575 30.9562 19.9875 31.1624 21.4187 31.2687C22.2437 32.4375 23.15 33.5562 24.1187 34.6062C23.9187 34.8 23.7188 34.9875 23.5188 35.1625ZM25.05 33.6437C24.4125 32.9562 23.775 32.1937 23.1562 31.375C23.7563 31.4 24.375 31.4125 25 31.4125C25.6437 31.4125 26.275 31.4 26.9 31.3687C26.325 32.1625 25.7062 32.9187 25.05 33.6437ZM33.2188 35.5187C33.1625 36.2812 32.7875 36.9937 32.1875 37.475C31.1938 38.05 29.075 37.2999 26.7875 35.3375C26.525 35.1124 26.2625 34.8687 25.9937 34.6187C26.95 33.5625 27.8313 32.4437 28.6313 31.2687C30.0625 31.15 31.4875 30.9312 32.8937 30.6124C32.9562 30.8687 33.0125 31.125 33.0625 31.375C33.3687 32.725 33.4188 34.1312 33.2188 35.5187ZM34.3563 28.7999C34.1813 28.8562 34.0063 28.9125 33.825 28.9625C33.3875 27.6 32.85 26.2687 32.2313 24.975C32.8313 23.7 33.3375 22.3875 33.7625 21.0437C34.0875 21.1375 34.4 21.2374 34.7 21.3375C37.6125 22.3375 39.6562 23.825 39.6562 24.9625C39.6562 26.1875 37.475 27.7687 34.3563 28.7999ZM25 27.8624C26.5812 27.8624 27.8625 26.5812 27.8625 25C27.8625 23.4187 26.5812 22.1375 25 22.1375C23.4187 22.1375 22.1375 23.4187 22.1375 25C22.1375 26.5812 23.4187 27.8624 25 27.8624Z" fill="url(#paint3_linear_112_789)"/>
</g>
</g>
<rect x="1" y="1" width="48" height="48" rx="12" stroke="url(#paint4_linear_112_789)" stroke-opacity="0.5" stroke-width="0.8" shape-rendering="crispEdges"/>
</g>
<g style="mix-blend-mode:screen" filter="url(#filter3_f_112_789)">
<circle cx="18" cy="18" r="9" fill="white" fill-opacity="0.18"/>
</g>
</g>
<rect x="0.5" y="0.5" width="49" height="49" rx="12.5" stroke="url(#paint5_linear_112_789)"/>
<defs>
<filter id="filter0_bdi_112_789" x="-19.4" y="-19.4" width="92.8" height="88.8" filterUnits="userSpaceOnUse" color-interpolation-filters="sRGB">
<feFlood flood-opacity="0" result="BackgroundImageFix"/>
<feGaussianBlur in="BackgroundImageFix" stdDeviation="10"/>
<feComposite in2="SourceAlpha" operator="in" result="effect1_backgroundBlur_112_789"/>
<feColorMatrix in="SourceAlpha" type="matrix" values="0 0 0 0 0 0 0 0 0 0 0 0 0 0 0 0 0 0 127 0" result="hardAlpha"/>
<feOffset dx="8" dy="4"/>
<feGaussianBlur stdDeviation="8"/>
<feComposite in2="hardAlpha" operator="out"/>
<feColorMatrix type="matrix" values="0 0 0 0 0 0 0 0 0 0 0 0 0 0 0 0 0 0 0.08 0"/>
<feBlend mode="normal" in2="effect1_backgroundBlur_112_789" result="effect2_dropShadow_112_789"/>
<feBlend mode="normal" in="SourceGraphic" in2="effect2_dropShadow_112_789" result="shape"/>
<feColorMatrix in="SourceAlpha" type="matrix" values="0 0 0 0 0 0 0 0 0 0 0 0 0 0 0 0 0 0 127 0" result="hardAlpha"/>
<feOffset/>
<feGaussianBlur stdDeviation="4"/>
<feComposite in2="hardAlpha" operator="arithmetic" k2="-1" k3="1"/>
<feColorMatrix type="matrix" values="0 0 0 0 0.0509804 0 0 0 0 0.538353 0 0 0 0 0.988235 0 0 0 0.32 0"/>
<feBlend mode="normal" in2="shape" result="effect3_innerShadow_112_789"/>
</filter>
<filter id="filter1_f_112_789" x="-4" y="24" width="59" height="49" filterUnits="userSpaceOnUse" color-interpolation-filters="sRGB">
<feFlood flood-opacity="0" result="BackgroundImageFix"/>
<feBlend mode="normal" in="SourceGraphic" in2="BackgroundImageFix" result="shape"/>
<feGaussianBlur stdDeviation="9" result="effect1_foregroundBlur_112_789"/>
</filter>
<filter id="filter2_f_112_789" x="-31" y="-31" width="112" height="112" filterUnits="userSpaceOnUse" color-interpolation-filters="sRGB">
<feFlood flood-opacity="0" result="BackgroundImageFix"/>
<feBlend mode="normal" in="SourceGraphic" in2="BackgroundImageFix" result="shape"/>
<feGaussianBlur stdDeviation="20" result="effect1_foregroundBlur_112_789"/>
</filter>
<filter id="filter3_f_112_789" x="-11" y="-11" width="58" height="58" filterUnits="userSpaceOnUse" color-interpolation-filters="sRGB">
<feFlood flood-opacity="0" result="BackgroundImageFix"/>
<feBlend mode="normal" in="SourceGraphic" in2="BackgroundImageFix" result="shape"/>
<feGaussianBlur stdDeviation="10" result="effect1_foregroundBlur_112_789"/>
</filter>
<linearGradient id="paint0_linear_112_789" x1="1" y1="1" x2="49" y2="49" gradientUnits="userSpaceOnUse">
<stop stop-color="#F8FBFF"/>
<stop offset="1" stop-color="white" stop-opacity="0"/>
</linearGradient>
<linearGradient id="paint1_linear_112_789" x1="25.5" y1="42" x2="25.5" y2="55" gradientUnits="userSpaceOnUse">
<stop stop-color="#6FBBF4"/>
<stop offset="1" stop-color="#00FFFF"/>
</linearGradient>
<linearGradient id="paint2_linear_112_789" x1="10.8682" y1="11.0007" x2="39.1318" y2="39.0022" gradientUnits="userSpaceOnUse">
<stop stop-color="#00FFFF"/>
<stop offset="0.8" stop-color="#6FBBF4"/>
</linearGradient>
<linearGradient id="paint3_linear_112_789" x1="10.8682" y1="11.0007" x2="39.1318" y2="39.0022" gradientUnits="userSpaceOnUse">
<stop stop-color="#65DAFB"/>
<stop offset="0.8" stop-color="#6FBBF4"/>
</linearGradient>
<linearGradient id="paint4_linear_112_789" x1="2" y1="-5.85375e-08" x2="47.5" y2="49" gradientUnits="userSpaceOnUse">
<stop stop-color="#D8D8D8" stop-opacity="0.05"/>
<stop offset="1" stop-color="white" stop-opacity="0.4"/>
</linearGradient>
<linearGradient id="paint5_linear_112_789" x1="12.2533" y1="1" x2="37.7467" y2="49" gradientUnits="userSpaceOnUse">
<stop stop-color="#00FFFF"/>
<stop offset="1" stop-color="white"/>
</linearGradient>
<clipPath id="clip0_112_789">
<rect x="1" y="1" width="48" height="48" rx="12" fill="white"/>
</clipPath>
<clipPath id="clip1_112_789">
<rect x="1" y="1" width="48" height="48" rx="12" fill="white"/>
</clipPath>
</defs>
</svg>
