<svg width="50" height="50" viewBox="0 0 50 50" fill="none" xmlns="http://www.w3.org/2000/svg">
<g clip-path="url(#clip0_112_781)">
<g filter="url(#filter0_bdi_112_781)">
<g clip-path="url(#clip1_112_781)">
<rect x="1" y="1" width="48" height="48" rx="12" fill="url(#paint0_linear_112_781)" fill-opacity="0.03" shape-rendering="crispEdges"/>
<g filter="url(#filter1_f_112_781)">
<path d="M24.0919 31.146C24.0619 31.2 24.0769 31.176 24.0919 31.146V31.146ZM36.5484 26.796C35.5428 26.7957 34.5506 27.0267 33.6484 27.471C33.3534 26.876 33.0484 26.356 32.9984 25.966C32.9384 25.511 32.8734 25.241 32.9434 24.701C33.0134 24.161 33.3284 23.396 33.3234 23.341C33.3184 23.286 33.2534 23.011 32.6084 23.006C31.9634 23.001 31.4084 23.131 31.3439 23.301C31.23 23.6117 31.1414 23.9311 31.0789 24.256C30.9639 24.841 29.7894 26.931 29.1244 28.021C28.9044 27.596 28.7194 27.221 28.6794 26.921C28.6194 26.466 28.5544 26.196 28.6244 25.656C28.6944 25.116 29.0094 24.351 29.0044 24.296C28.9994 24.241 28.9344 23.966 28.2899 23.961C27.6454 23.956 27.0899 24.086 27.0249 24.256C26.9599 24.426 26.8899 24.826 26.7599 25.211C26.6299 25.596 25.0654 29.076 24.6559 29.981C24.4459 30.441 24.2659 30.811 24.1359 31.061C24.1159 31.101 24.1009 31.126 24.0909 31.146C24.1059 31.121 24.1159 31.096 24.1159 31.106C24.0059 31.321 23.9409 31.441 23.9409 31.441V31.446C23.8559 31.606 23.7609 31.751 23.7159 31.751C23.6859 31.751 23.6209 31.331 23.7309 30.756C23.9659 29.546 24.5209 27.666 24.5159 27.601C24.5109 27.566 24.6209 27.241 24.1509 27.066C23.6959 26.901 23.5309 27.176 23.4909 27.176C23.4509 27.176 23.4209 27.276 23.4209 27.276C23.4209 27.276 23.9259 25.156 22.4514 25.156C21.5314 25.156 20.2514 26.166 19.6224 27.081C19.2274 27.296 18.3724 27.761 17.4724 28.256C17.1274 28.446 16.7724 28.641 16.4374 28.826C16.4124 28.801 16.3924 28.776 16.3674 28.751C14.5779 26.841 11.2739 25.491 11.4139 22.926C11.4639 21.991 11.7889 19.536 17.7674 16.556C22.6674 14.116 26.5849 14.786 27.2594 16.276C28.2294 18.401 25.1649 22.356 20.0764 22.926C18.1369 23.141 17.1174 22.391 16.8624 22.111C16.5974 21.816 16.5574 21.801 16.4574 21.856C16.2924 21.946 16.3974 22.206 16.4574 22.361C16.6074 22.756 17.2324 23.456 18.2969 23.806C19.2319 24.111 21.5059 24.281 24.2554 23.216C27.3444 22.026 29.7489 18.711 29.0439 15.936C28.3259 13.116 23.6499 12.191 19.2284 13.761C16.5939 14.696 13.7449 16.166 11.6954 18.081C9.26094 20.361 8.87144 22.346 9.03144 23.176C9.60094 26.121 13.6599 28.041 15.2844 29.461C15.2044 29.506 15.1294 29.546 15.0594 29.586C14.2449 29.991 11.1504 31.611 10.3759 33.321C9.50094 35.261 10.5209 36.651 11.1904 36.841C13.2799 37.421 15.4194 36.376 16.5689 34.661C17.7184 32.946 17.5789 30.706 17.0489 29.686C17.0439 29.671 17.0339 29.661 17.0289 29.646C17.2389 29.521 17.4539 29.396 17.6689 29.271C18.0834 29.026 18.4884 28.801 18.8434 28.606C18.6434 29.146 18.4984 29.796 18.4234 30.736C18.3334 31.836 18.7884 33.261 19.3784 33.821C19.6384 34.066 19.9529 34.071 20.1479 34.071C20.8379 34.071 21.1479 33.501 21.4924 32.821C21.9174 31.991 22.2924 31.026 22.2924 31.026C22.2924 31.026 21.8224 33.636 23.1074 33.636C23.5769 33.636 24.0469 33.031 24.2574 32.721V32.726C24.2574 32.726 24.2674 32.706 24.2924 32.666C24.3424 32.591 24.3674 32.546 24.3674 32.546V32.531C24.5574 32.206 24.9724 31.461 25.5969 30.231C26.4069 28.641 27.1814 26.656 27.1814 26.656C27.2563 27.0924 27.3598 27.5233 27.4914 27.946C27.6314 28.421 27.9264 28.941 28.1614 29.446C27.9714 29.706 27.8564 29.856 27.8564 29.856C27.8568 29.8599 27.8586 29.8634 27.8614 29.866C27.7114 30.066 27.5414 30.281 27.3664 30.491C26.7269 31.251 25.9664 32.121 25.8664 32.371C25.7464 32.666 25.7764 32.886 26.0064 33.056C26.1764 33.186 26.4764 33.206 26.7909 33.181C27.3659 33.141 27.7709 33.001 27.9659 32.911C28.3254 32.7821 28.6652 32.6037 28.9754 32.381C29.6004 31.921 29.9804 31.261 29.9454 30.391C29.9254 29.911 29.7704 29.431 29.5804 28.981C29.6354 28.901 29.6954 28.816 29.7504 28.731C30.7399 27.286 31.5049 25.7 31.5049 25.7C31.5798 26.1364 31.6833 26.5673 31.8149 26.99C31.9349 27.395 32.1694 27.84 32.3844 28.275C31.4549 29.03 30.8799 29.905 30.6799 30.48C30.3099 31.545 30.5999 32.025 31.1449 32.135C31.3899 32.185 31.7399 32.07 31.9999 31.96C32.3861 31.8314 32.7502 31.6442 33.0794 31.405C33.7044 30.945 34.3089 30.3 34.2689 29.425C34.2539 29.03 34.1439 28.635 33.9989 28.255C34.7839 27.925 35.8034 27.745 37.1034 27.895C39.8874 28.22 40.4324 29.96 40.3274 30.685C40.2224 31.41 39.6374 31.815 39.4424 31.935C39.2474 32.055 39.1874 32.1 39.2024 32.19C39.2274 32.32 39.3174 32.315 39.4824 32.285C39.7124 32.245 40.9419 31.695 40.9969 30.35C41.0769 28.65 39.4424 26.78 36.5469 26.795L36.5484 26.796ZM15.0894 34.031C14.1699 35.036 12.8799 35.416 12.3254 35.096C11.7304 34.75 11.9654 33.271 13.0999 32.2C13.7899 31.55 14.6794 30.95 15.2694 30.58C15.4044 30.5 15.5994 30.38 15.8394 30.235C15.8794 30.21 15.8994 30.2 15.8994 30.2C15.9444 30.17 15.9944 30.145 16.0444 30.115C16.4589 31.635 16.0594 32.975 15.0894 34.03V34.031ZM21.8074 29.461C21.4874 30.246 20.8129 32.246 20.4029 32.141C20.0529 32.051 19.8379 30.526 20.3329 29.026C20.5829 28.271 21.1129 27.371 21.4279 27.021C21.9324 26.456 22.4874 26.276 22.6174 26.501C22.7924 26.796 22.0074 28.971 21.8074 29.461ZM27.3574 32.111C27.2224 32.181 27.0974 32.226 27.0374 32.191C26.9924 32.166 27.0924 32.071 27.0924 32.071C27.0924 32.071 27.7874 31.326 28.0624 30.986C28.2224 30.786 28.4074 30.551 28.6069 30.291C28.6069 30.316 28.6119 30.341 28.6119 30.371C28.6054 31.266 27.7459 31.871 27.3559 32.111H27.3574ZM31.6364 31.136C31.5364 31.066 31.5514 30.831 31.8864 30.101C32.0164 29.816 32.3159 29.336 32.8364 28.876C32.8954 29.0502 32.9274 29.2323 32.9314 29.416C32.9264 30.541 32.1214 30.961 31.6369 31.136H31.6364Z" fill="#CB6198"/>
</g>
<g filter="url(#filter2_f_112_781)">
<ellipse cx="25.5" cy="48.5" rx="11.5" ry="6.5" fill="#CB6198"/>
</g>
<path d="M24.0919 31.146C24.0619 31.2 24.0769 31.176 24.0919 31.146V31.146ZM36.5484 26.796C35.5428 26.7957 34.5506 27.0267 33.6484 27.471C33.3534 26.876 33.0484 26.356 32.9984 25.966C32.9384 25.511 32.8734 25.241 32.9434 24.701C33.0134 24.161 33.3284 23.396 33.3234 23.341C33.3184 23.286 33.2534 23.011 32.6084 23.006C31.9634 23.001 31.4084 23.131 31.3439 23.301C31.23 23.6117 31.1414 23.9311 31.0789 24.256C30.9639 24.841 29.7894 26.931 29.1244 28.021C28.9044 27.596 28.7194 27.221 28.6794 26.921C28.6194 26.466 28.5544 26.196 28.6244 25.656C28.6944 25.116 29.0094 24.351 29.0044 24.296C28.9994 24.241 28.9344 23.966 28.2899 23.961C27.6454 23.956 27.0899 24.086 27.0249 24.256C26.9599 24.426 26.8899 24.826 26.7599 25.211C26.6299 25.596 25.0654 29.076 24.6559 29.981C24.4459 30.441 24.2659 30.811 24.1359 31.061C24.1159 31.101 24.1009 31.126 24.0909 31.146C24.1059 31.121 24.1159 31.096 24.1159 31.106C24.0059 31.321 23.9409 31.441 23.9409 31.441V31.446C23.8559 31.606 23.7609 31.751 23.7159 31.751C23.6859 31.751 23.6209 31.331 23.7309 30.756C23.9659 29.546 24.5209 27.666 24.5159 27.601C24.5109 27.566 24.6209 27.241 24.1509 27.066C23.6959 26.901 23.5309 27.176 23.4909 27.176C23.4509 27.176 23.4209 27.276 23.4209 27.276C23.4209 27.276 23.9259 25.156 22.4514 25.156C21.5314 25.156 20.2514 26.166 19.6224 27.081C19.2274 27.296 18.3724 27.761 17.4724 28.256C17.1274 28.446 16.7724 28.641 16.4374 28.826C16.4124 28.801 16.3924 28.776 16.3674 28.751C14.5779 26.841 11.2739 25.491 11.4139 22.926C11.4639 21.991 11.7889 19.536 17.7674 16.556C22.6674 14.116 26.5849 14.786 27.2594 16.276C28.2294 18.401 25.1649 22.356 20.0764 22.926C18.1369 23.141 17.1174 22.391 16.8624 22.111C16.5974 21.816 16.5574 21.801 16.4574 21.856C16.2924 21.946 16.3974 22.206 16.4574 22.361C16.6074 22.756 17.2324 23.456 18.2969 23.806C19.2319 24.111 21.5059 24.281 24.2554 23.216C27.3444 22.026 29.7489 18.711 29.0439 15.936C28.3259 13.116 23.6499 12.191 19.2284 13.761C16.5939 14.696 13.7449 16.166 11.6954 18.081C9.26094 20.361 8.87144 22.346 9.03144 23.176C9.60094 26.121 13.6599 28.041 15.2844 29.461C15.2044 29.506 15.1294 29.546 15.0594 29.586C14.2449 29.991 11.1504 31.611 10.3759 33.321C9.50094 35.261 10.5209 36.651 11.1904 36.841C13.2799 37.421 15.4194 36.376 16.5689 34.661C17.7184 32.946 17.5789 30.706 17.0489 29.686C17.0439 29.671 17.0339 29.661 17.0289 29.646C17.2389 29.521 17.4539 29.396 17.6689 29.271C18.0834 29.026 18.4884 28.801 18.8434 28.606C18.6434 29.146 18.4984 29.796 18.4234 30.736C18.3334 31.836 18.7884 33.261 19.3784 33.821C19.6384 34.066 19.9529 34.071 20.1479 34.071C20.8379 34.071 21.1479 33.501 21.4924 32.821C21.9174 31.991 22.2924 31.026 22.2924 31.026C22.2924 31.026 21.8224 33.636 23.1074 33.636C23.5769 33.636 24.0469 33.031 24.2574 32.721V32.726C24.2574 32.726 24.2674 32.706 24.2924 32.666C24.3424 32.591 24.3674 32.546 24.3674 32.546V32.531C24.5574 32.206 24.9724 31.461 25.5969 30.231C26.4069 28.641 27.1814 26.656 27.1814 26.656C27.2563 27.0924 27.3598 27.5233 27.4914 27.946C27.6314 28.421 27.9264 28.941 28.1614 29.446C27.9714 29.706 27.8564 29.856 27.8564 29.856C27.8568 29.8599 27.8586 29.8634 27.8614 29.866C27.7114 30.066 27.5414 30.281 27.3664 30.491C26.7269 31.251 25.9664 32.121 25.8664 32.371C25.7464 32.666 25.7764 32.886 26.0064 33.056C26.1764 33.186 26.4764 33.206 26.7909 33.181C27.3659 33.141 27.7709 33.001 27.9659 32.911C28.3254 32.7821 28.6652 32.6037 28.9754 32.381C29.6004 31.921 29.9804 31.261 29.9454 30.391C29.9254 29.911 29.7704 29.431 29.5804 28.981C29.6354 28.901 29.6954 28.816 29.7504 28.731C30.7399 27.286 31.5049 25.7 31.5049 25.7C31.5798 26.1364 31.6833 26.5673 31.8149 26.99C31.9349 27.395 32.1694 27.84 32.3844 28.275C31.4549 29.03 30.8799 29.905 30.6799 30.48C30.3099 31.545 30.5999 32.025 31.1449 32.135C31.3899 32.185 31.7399 32.07 31.9999 31.96C32.3861 31.8314 32.7502 31.6442 33.0794 31.405C33.7044 30.945 34.3089 30.3 34.2689 29.425C34.2539 29.03 34.1439 28.635 33.9989 28.255C34.7839 27.925 35.8034 27.745 37.1034 27.895C39.8874 28.22 40.4324 29.96 40.3274 30.685C40.2224 31.41 39.6374 31.815 39.4424 31.935C39.2474 32.055 39.1874 32.1 39.2024 32.19C39.2274 32.32 39.3174 32.315 39.4824 32.285C39.7124 32.245 40.9419 31.695 40.9969 30.35C41.0769 28.65 39.4424 26.78 36.5469 26.795L36.5484 26.796ZM15.0894 34.031C14.1699 35.036 12.8799 35.416 12.3254 35.096C11.7304 34.75 11.9654 33.271 13.0999 32.2C13.7899 31.55 14.6794 30.95 15.2694 30.58C15.4044 30.5 15.5994 30.38 15.8394 30.235C15.8794 30.21 15.8994 30.2 15.8994 30.2C15.9444 30.17 15.9944 30.145 16.0444 30.115C16.4589 31.635 16.0594 32.975 15.0894 34.03V34.031ZM21.8074 29.461C21.4874 30.246 20.8129 32.246 20.4029 32.141C20.0529 32.051 19.8379 30.526 20.3329 29.026C20.5829 28.271 21.1129 27.371 21.4279 27.021C21.9324 26.456 22.4874 26.276 22.6174 26.501C22.7924 26.796 22.0074 28.971 21.8074 29.461ZM27.3574 32.111C27.2224 32.181 27.0974 32.226 27.0374 32.191C26.9924 32.166 27.0924 32.071 27.0924 32.071C27.0924 32.071 27.7874 31.326 28.0624 30.986C28.2224 30.786 28.4074 30.551 28.6069 30.291C28.6069 30.316 28.6119 30.341 28.6119 30.371C28.6054 31.266 27.7459 31.871 27.3559 32.111H27.3574ZM31.6364 31.136C31.5364 31.066 31.5514 30.831 31.8864 30.101C32.0164 29.816 32.3159 29.336 32.8364 28.876C32.8954 29.0502 32.9274 29.2323 32.9314 29.416C32.9264 30.541 32.1214 30.961 31.6369 31.136H31.6364Z" fill="#CB6198"/>
</g>
<rect x="1" y="1" width="48" height="48" rx="12" stroke="url(#paint1_linear_112_781)" stroke-opacity="0.5" stroke-width="0.8" shape-rendering="crispEdges"/>
</g>
<g style="mix-blend-mode:screen" filter="url(#filter3_f_112_781)">
<circle cx="18" cy="18" r="9" fill="white" fill-opacity="0.18"/>
</g>
</g>
<rect x="0.5" y="0.5" width="49" height="49" rx="12.5" stroke="url(#paint2_linear_112_781)"/>
<defs>
<filter id="filter0_bdi_112_781" x="-19.4" y="-19.4" width="92.8" height="88.8" filterUnits="userSpaceOnUse" color-interpolation-filters="sRGB">
<feFlood flood-opacity="0" result="BackgroundImageFix"/>
<feGaussianBlur in="BackgroundImageFix" stdDeviation="10"/>
<feComposite in2="SourceAlpha" operator="in" result="effect1_backgroundBlur_112_781"/>
<feColorMatrix in="SourceAlpha" type="matrix" values="0 0 0 0 0 0 0 0 0 0 0 0 0 0 0 0 0 0 127 0" result="hardAlpha"/>
<feOffset dx="8" dy="4"/>
<feGaussianBlur stdDeviation="8"/>
<feComposite in2="hardAlpha" operator="out"/>
<feColorMatrix type="matrix" values="0 0 0 0 0 0 0 0 0 0 0 0 0 0 0 0 0 0 0.08 0"/>
<feBlend mode="normal" in2="effect1_backgroundBlur_112_781" result="effect2_dropShadow_112_781"/>
<feBlend mode="normal" in="SourceGraphic" in2="effect2_dropShadow_112_781" result="shape"/>
<feColorMatrix in="SourceAlpha" type="matrix" values="0 0 0 0 0 0 0 0 0 0 0 0 0 0 0 0 0 0 127 0" result="hardAlpha"/>
<feOffset/>
<feGaussianBlur stdDeviation="4"/>
<feComposite in2="hardAlpha" operator="arithmetic" k2="-1" k3="1"/>
<feColorMatrix type="matrix" values="0 0 0 0 0.826389 0 0 0 0 0.942083 0 0 0 0 0.991667 0 0 0 0.32 0"/>
<feBlend mode="normal" in2="shape" result="effect3_innerShadow_112_781"/>
</filter>
<filter id="filter1_f_112_781" x="-3" y="-3" width="56" height="56" filterUnits="userSpaceOnUse" color-interpolation-filters="sRGB">
<feFlood flood-opacity="0" result="BackgroundImageFix"/>
<feBlend mode="normal" in="SourceGraphic" in2="BackgroundImageFix" result="shape"/>
<feGaussianBlur stdDeviation="6" result="effect1_foregroundBlur_112_781"/>
</filter>
<filter id="filter2_f_112_781" x="-4" y="24" width="59" height="49" filterUnits="userSpaceOnUse" color-interpolation-filters="sRGB">
<feFlood flood-opacity="0" result="BackgroundImageFix"/>
<feBlend mode="normal" in="SourceGraphic" in2="BackgroundImageFix" result="shape"/>
<feGaussianBlur stdDeviation="9" result="effect1_foregroundBlur_112_781"/>
</filter>
<filter id="filter3_f_112_781" x="-11" y="-11" width="58" height="58" filterUnits="userSpaceOnUse" color-interpolation-filters="sRGB">
<feFlood flood-opacity="0" result="BackgroundImageFix"/>
<feBlend mode="normal" in="SourceGraphic" in2="BackgroundImageFix" result="shape"/>
<feGaussianBlur stdDeviation="10" result="effect1_foregroundBlur_112_781"/>
</filter>
<linearGradient id="paint0_linear_112_781" x1="1" y1="1" x2="49" y2="49" gradientUnits="userSpaceOnUse">
<stop stop-color="#CB6198"/>
<stop offset="1" stop-color="white" stop-opacity="0"/>
</linearGradient>
<linearGradient id="paint1_linear_112_781" x1="2" y1="-5.85375e-08" x2="47.5" y2="49" gradientUnits="userSpaceOnUse">
<stop stop-color="#CB6198" stop-opacity="0.05"/>
<stop offset="1" stop-color="white" stop-opacity="0.4"/>
</linearGradient>
<linearGradient id="paint2_linear_112_781" x1="44.999" y1="49" x2="5.00105" y2="1" gradientUnits="userSpaceOnUse">
<stop stop-color="#CB6198"/>
<stop offset="0.696722" stop-color="#C9C4C6"/>
</linearGradient>
<clipPath id="clip0_112_781">
<rect x="1" y="1" width="48" height="48" rx="12" fill="white"/>
</clipPath>
<clipPath id="clip1_112_781">
<rect x="1" y="1" width="48" height="48" rx="12" fill="white"/>
</clipPath>
</defs>
</svg>
