<svg width="48" height="48" viewBox="0 0 48 48" fill="none" xmlns="http://www.w3.org/2000/svg">
<g clip-path="url(#clip0_179_124)">
<g style="mix-blend-mode:screen" filter="url(#filter0_f_179_124)">
<circle cx="17" cy="17" r="9" fill="white" fill-opacity="0.21"/>
</g>
<g filter="url(#filter1_bdi_179_124)">
<g clip-path="url(#clip1_179_124)">
<rect width="48" height="48" rx="12" fill="url(#paint0_linear_179_124)" fill-opacity="0.04" shape-rendering="crispEdges"/>
<g filter="url(#filter2_f_179_124)">
<ellipse cx="23.5" cy="47.5" rx="11.5" ry="6.5" fill="white"/>
</g>
<g filter="url(#filter3_f_179_124)">
<path d="M30 24C30 25.3875 29.925 26.725 29.7938 28H18.2063C18.0688 26.725 18 25.3875 18 24C18 22.6125 18.075 21.275 18.2063 20H29.7938C29.9313 21.275 30 22.6125 30 24ZM31.8 20H39.4937C39.825 21.2812 40 22.6187 40 24C40 25.3813 39.825 26.7188 39.4937 28H31.8C31.9312 26.7125 32 25.375 32 24C32 22.625 31.9312 21.2875 31.8 20ZM38.8375 18H31.5438C30.9188 14.0062 29.6812 10.6625 28.0875 8.525C32.9812 9.81875 36.9625 13.3688 38.8312 18H38.8375ZM29.5187 18H18.4812C18.8625 15.725 19.45 13.7125 20.1687 12.0813C20.825 10.6063 21.5562 9.5375 22.2625 8.8625C22.9625 8.2 23.5437 8 24 8C24.4563 8 25.0375 8.2 25.7375 8.8625C26.4437 9.5375 27.175 10.6063 27.8312 12.0813C28.5562 13.7063 29.1375 15.7188 29.5187 18ZM16.4563 18H9.1625C11.0375 13.3688 15.0125 9.81875 19.9125 8.525C18.3188 10.6625 17.0813 14.0062 16.4563 18ZM8.50625 20H16.2C16.0687 21.2875 16 22.625 16 24C16 25.375 16.0687 26.7125 16.2 28H8.50625C8.175 26.7188 8 25.3813 8 24C8 22.6187 8.175 21.2812 8.50625 20ZM20.1687 35.9125C19.4437 34.2875 18.8625 32.275 18.4812 30H29.5187C29.1375 32.275 28.55 34.2875 27.8312 35.9125C27.175 37.3875 26.4437 38.4563 25.7375 39.1313C25.0375 39.8 24.4563 40 24 40C23.5437 40 22.9625 39.8 22.2625 39.1375C21.5562 38.4625 20.825 37.3938 20.1687 35.9188V35.9125ZM16.4563 30C17.0813 33.9938 18.3188 37.3375 19.9125 39.475C15.0125 38.1813 11.0375 34.6312 9.1625 30H16.4563ZM38.8375 30C36.9625 34.6312 32.9875 38.1813 28.0938 39.475C29.6875 37.3375 30.9187 33.9938 31.55 30H38.8375Z" fill="white"/>
</g>
<path d="M30 24C30 25.3875 29.925 26.725 29.7938 28H18.2063C18.0688 26.725 18 25.3875 18 24C18 22.6125 18.075 21.275 18.2063 20H29.7938C29.9313 21.275 30 22.6125 30 24ZM31.8 20H39.4937C39.825 21.2812 40 22.6187 40 24C40 25.3813 39.825 26.7188 39.4937 28H31.8C31.9312 26.7125 32 25.375 32 24C32 22.625 31.9312 21.2875 31.8 20ZM38.8375 18H31.5438C30.9188 14.0062 29.6812 10.6625 28.0875 8.525C32.9812 9.81875 36.9625 13.3688 38.8312 18H38.8375ZM29.5187 18H18.4812C18.8625 15.725 19.45 13.7125 20.1687 12.0813C20.825 10.6063 21.5562 9.5375 22.2625 8.8625C22.9625 8.2 23.5437 8 24 8C24.4563 8 25.0375 8.2 25.7375 8.8625C26.4437 9.5375 27.175 10.6063 27.8312 12.0813C28.5562 13.7063 29.1375 15.7188 29.5187 18ZM16.4563 18H9.1625C11.0375 13.3688 15.0125 9.81875 19.9125 8.525C18.3188 10.6625 17.0813 14.0062 16.4563 18ZM8.50625 20H16.2C16.0687 21.2875 16 22.625 16 24C16 25.375 16.0687 26.7125 16.2 28H8.50625C8.175 26.7188 8 25.3813 8 24C8 22.6187 8.175 21.2812 8.50625 20ZM20.1687 35.9125C19.4437 34.2875 18.8625 32.275 18.4812 30H29.5187C29.1375 32.275 28.55 34.2875 27.8312 35.9125C27.175 37.3875 26.4437 38.4563 25.7375 39.1313C25.0375 39.8 24.4563 40 24 40C23.5437 40 22.9625 39.8 22.2625 39.1375C21.5562 38.4625 20.825 37.3938 20.1687 35.9188V35.9125ZM16.4563 30C17.0813 33.9938 18.3188 37.3375 19.9125 39.475C15.0125 38.1813 11.0375 34.6312 9.1625 30H16.4563ZM38.8375 30C36.9625 34.6312 32.9875 38.1813 28.0938 39.475C29.6875 37.3375 30.9187 33.9938 31.55 30H38.8375Z" fill="white"/>
</g>
<rect width="48" height="48" rx="12" stroke="url(#paint1_linear_179_124)" stroke-opacity="0.5" stroke-width="0.8" shape-rendering="crispEdges"/>
</g>
</g>
<rect x="0.5" y="0.5" width="47" height="47" rx="11.5" stroke="url(#paint2_linear_179_124)"/>
<defs>
<filter id="filter0_f_179_124" x="-12" y="-12" width="58" height="58" filterUnits="userSpaceOnUse" color-interpolation-filters="sRGB">
<feFlood flood-opacity="0" result="BackgroundImageFix"/>
<feBlend mode="normal" in="SourceGraphic" in2="BackgroundImageFix" result="shape"/>
<feGaussianBlur stdDeviation="10" result="effect1_foregroundBlur_179_124"/>
</filter>
<filter id="filter1_bdi_179_124" x="-20.4004" y="-20.3999" width="92.8008" height="88.7998" filterUnits="userSpaceOnUse" color-interpolation-filters="sRGB">
<feFlood flood-opacity="0" result="BackgroundImageFix"/>
<feGaussianBlur in="BackgroundImageFix" stdDeviation="10"/>
<feComposite in2="SourceAlpha" operator="in" result="effect1_backgroundBlur_179_124"/>
<feColorMatrix in="SourceAlpha" type="matrix" values="0 0 0 0 0 0 0 0 0 0 0 0 0 0 0 0 0 0 127 0" result="hardAlpha"/>
<feOffset dx="8" dy="4"/>
<feGaussianBlur stdDeviation="8"/>
<feComposite in2="hardAlpha" operator="out"/>
<feColorMatrix type="matrix" values="0 0 0 0 0 0 0 0 0 0 0 0 0 0 0 0 0 0 0.08 0"/>
<feBlend mode="normal" in2="effect1_backgroundBlur_179_124" result="effect2_dropShadow_179_124"/>
<feBlend mode="normal" in="SourceGraphic" in2="effect2_dropShadow_179_124" result="shape"/>
<feColorMatrix in="SourceAlpha" type="matrix" values="0 0 0 0 0 0 0 0 0 0 0 0 0 0 0 0 0 0 127 0" result="hardAlpha"/>
<feOffset/>
<feGaussianBlur stdDeviation="4"/>
<feComposite in2="hardAlpha" operator="arithmetic" k2="-1" k3="1"/>
<feColorMatrix type="matrix" values="0 0 0 0 0.826389 0 0 0 0 0.942083 0 0 0 0 0.991667 0 0 0 0.32 0"/>
<feBlend mode="normal" in2="shape" result="effect3_innerShadow_179_124"/>
</filter>
<filter id="filter2_f_179_124" x="-6" y="23" width="59" height="49" filterUnits="userSpaceOnUse" color-interpolation-filters="sRGB">
<feFlood flood-opacity="0" result="BackgroundImageFix"/>
<feBlend mode="normal" in="SourceGraphic" in2="BackgroundImageFix" result="shape"/>
<feGaussianBlur stdDeviation="9" result="effect1_foregroundBlur_179_124"/>
</filter>
<filter id="filter3_f_179_124" x="-4" y="-4" width="56" height="56" filterUnits="userSpaceOnUse" color-interpolation-filters="sRGB">
<feFlood flood-opacity="0" result="BackgroundImageFix"/>
<feBlend mode="normal" in="SourceGraphic" in2="BackgroundImageFix" result="shape"/>
<feGaussianBlur stdDeviation="6" result="effect1_foregroundBlur_179_124"/>
</filter>
<linearGradient id="paint0_linear_179_124" x1="0" y1="0" x2="48" y2="48" gradientUnits="userSpaceOnUse">
<stop stop-color="#F8FBFF"/>
<stop offset="1" stop-color="white" stop-opacity="0"/>
</linearGradient>
<linearGradient id="paint1_linear_179_124" x1="1" y1="-1" x2="46.5" y2="48" gradientUnits="userSpaceOnUse">
<stop stop-color="#D8D8D8" stop-opacity="0.05"/>
<stop offset="1" stop-color="white" stop-opacity="0.4"/>
</linearGradient>
<linearGradient id="paint2_linear_179_124" x1="41.6835" y1="48" x2="6.31652" y2="-2.57117e-06" gradientUnits="userSpaceOnUse">
<stop stop-color="white"/>
<stop offset="1" stop-color="#666666"/>
</linearGradient>
<clipPath id="clip0_179_124">
<rect width="48" height="48" rx="12" fill="white"/>
</clipPath>
<clipPath id="clip1_179_124">
<rect width="48" height="48" rx="12" fill="white"/>
</clipPath>
</defs>
</svg>
