<svg width="45" height="46" viewBox="0 0 45 46" fill="none" xmlns="http://www.w3.org/2000/svg">
<path d="M27.6188 5.0844C26.4234 4.73987 25.1789 5.43596 24.8344 6.63127L15.8344 38.1313C15.4899 39.3266 16.1859 40.5711 17.3813 40.9156C18.5766 41.2602 19.8211 40.5641 20.1656 39.3688L29.1656 7.86877C29.5102 6.67346 28.8141 5.42893 27.6188 5.0844ZM33.2859 13.5289C32.407 14.4078 32.407 15.8352 33.2859 16.7141L39.5649 23L33.2789 29.286C32.4 30.1649 32.4 31.5922 33.2789 32.4711C34.1578 33.35 35.5852 33.35 36.4641 32.4711L44.3391 24.5961C45.218 23.7172 45.218 22.2899 44.3391 21.411L36.4641 13.536C35.5852 12.6571 34.1578 12.6571 33.2789 13.536L33.2859 13.5289ZM11.7211 13.5289C10.8422 12.65 9.41486 12.65 8.53595 13.5289L0.66095 21.4039C-0.217957 22.2828 -0.217957 23.7102 0.66095 24.5891L8.53595 32.4641C9.41486 33.343 10.8422 33.343 11.7211 32.4641C12.6 31.5852 12.6 30.1578 11.7211 29.2789L5.43517 23L11.7211 16.7141C12.6 15.8352 12.6 14.4078 11.7211 13.5289Z" fill="white"/>
</svg>
