<svg width="45" height="46" viewBox="0 0 45 46" fill="none" xmlns="http://www.w3.org/2000/svg">
<g clip-path="url(#clip0_114_1170)">
<path d="M42.6749 6.8665L42.6757 6.86726C44.21 8.40154 44.21 10.8797 42.6757 12.414L38.4873 16.6024L28.897 7.01206L33.086 2.81551C34.6203 1.28122 37.0985 1.28122 38.6327 2.81551L42.6749 6.8665ZM4.61007 44.2905L16.7068 32.1937C17.2036 32.3514 17.7322 32.4375 18.2812 32.4375C21.1626 32.4375 23.5 30.1001 23.5 27.2188C23.5 24.3374 21.1626 22 18.2812 22C15.3999 22 13.0625 24.3374 13.0625 27.2188C13.0625 27.7677 13.1486 28.2962 13.3062 28.793L1.21221 40.8791C1.16408 40.5906 1.18495 40.2885 1.28183 40.0004L1.28209 39.9996L9.0692 16.7789L9.06978 16.7772C9.54599 15.3485 10.6861 14.2497 12.1268 13.8151C12.1271 13.815 12.1273 13.8149 12.1275 13.8149L24.7911 10.0184L24.7951 10.0172L25.0297 9.94582L35.5542 20.4703L35.4828 20.7049L35.4816 20.7089L31.6852 33.3725C31.685 33.3729 31.6849 33.3733 31.6848 33.3737C31.2506 34.8123 30.1441 35.9541 28.7214 36.4307L28.7212 36.4308L5.49173 44.2179L5.49172 44.2178L5.48332 44.2207C5.199 44.3189 4.89895 44.3403 4.61007 44.2905Z" stroke="white" stroke-width="2"/>
</g>
<defs>
<clipPath id="clip0_114_1170">
<rect width="45" height="45" fill="white" transform="translate(0 0.5)"/>
</clipPath>
</defs>
</svg>
