<svg width="28" height="28" viewBox="0 0 28 28" fill="none" xmlns="http://www.w3.org/2000/svg">
<g clip-path="url(#clip0_26_460)">
<path d="M19.3276 11.5735C17.9246 12.8011 16.0091 13.5 14 13.5C11.9909 13.5 10.0754 12.8011 8.6724 11.5735C7.27156 10.3477 6.5 8.70072 6.5 7C6.5 5.29928 7.27156 3.65227 8.6724 2.42654C10.0754 1.19894 11.9909 0.5 14 0.5C16.0091 0.5 17.9246 1.19894 19.3276 2.42654C20.7284 3.65227 21.5 5.29928 21.5 7C21.5 8.70072 20.7284 10.3477 19.3276 11.5735ZM0.5 26.3758C0.5 21.3258 5.19884 17.125 11.1438 17.125H16.8563C22.8012 17.125 27.5 21.3258 27.5 26.3758C27.5 26.9359 26.9574 27.5 26.1437 27.5H1.85625C1.04259 27.5 0.5 26.9359 0.5 26.3758Z" stroke="#6FBBF4" stroke-width="2"/>
</g>
<defs>
<clipPath id="clip0_26_460">
<rect width="28" height="28" fill="white"/>
</clipPath>
</defs>
</svg>
