<svg width="35" height="35" viewBox="0 0 35 35" fill="none" xmlns="http://www.w3.org/2000/svg">
<path d="M1.5 7.9375C1.5 6.73002 2.48002 5.75 3.6875 5.75H31.3125C32.52 5.75 33.5 6.73002 33.5 7.9375C33.5 8.62487 33.1772 9.27214 32.6242 9.68813C32.6241 9.68818 32.624 9.68824 32.6239 9.68829L18.1773 20.5233C18.177 20.5235 18.1767 20.5237 18.1764 20.5239C17.7744 20.8231 17.2256 20.8231 16.8236 20.5239C16.8233 20.5237 16.823 20.5235 16.8227 20.5233L2.37606 9.68829C2.37594 9.68821 2.37583 9.68812 2.37572 9.68804C1.82281 9.27205 1.5 8.62482 1.5 7.9375ZM1.5 26V14.1875L14.35 23.825C16.2196 25.2272 18.7804 25.2272 20.65 23.825L33.5 14.1875V26C33.5 27.7919 32.0419 29.25 30.25 29.25H4.75C2.95814 29.25 1.5 27.7919 1.5 26Z" stroke="#6FBBF4" stroke-width="2"/>
</svg>
