<svg width="35" height="35" viewBox="0 0 35 35" fill="none" xmlns="http://www.w3.org/2000/svg">
<path d="M21 15C21 17.2091 19.2091 19 17 19C14.7909 19 13 17.2091 13 15C13 12.7909 14.7909 11 17 11C19.2091 11 21 12.7909 21 15Z" stroke="#6FBBF4" stroke-width="2"/>
<path d="M28 15.5862C28 18.4537 26.6597 21.0847 24.4843 23.6745C22.4571 26.0878 19.7877 28.3703 17 30.6979C14.2123 28.3703 11.5429 26.0878 9.51571 23.6745C7.34033 21.0847 6 18.4537 6 15.5862C6 9.77239 10.8915 5 17 5C23.1085 5 28 9.77239 28 15.5862Z" stroke="#6FBBF4" stroke-width="2"/>
</svg>
