<svg width="74" height="95" viewBox="0 0 74 95" fill="none" xmlns="http://www.w3.org/2000/svg">
<path d="M73.8125 45.9375V81.375C72.4792 83.0833 70.375 84.9375 67.5 86.9375C64.6667 88.9375 60.9583 90.6667 56.375 92.125C51.7917 93.5417 46.1667 94.25 39.5 94.25C33.7083 94.25 28.4167 93.2917 23.625 91.375C18.8333 89.4167 14.7083 86.5625 11.25 82.8125C7.79167 79.0625 5.125 74.4792 3.25 69.0625C1.375 63.6458 0.4375 57.4583 0.4375 50.5V44.5C0.4375 37.5417 1.3125 31.3542 3.0625 25.9375C4.85417 20.5208 7.39583 15.9375 10.6875 12.1875C14.0208 8.4375 18 5.58333 22.625 3.625C27.2917 1.66667 32.5 0.6875 38.25 0.6875C45.9583 0.6875 52.2917 1.95833 57.25 4.5C62.25 7.04167 66.0833 10.5417 68.75 15C71.4167 19.4167 73.0833 24.5 73.75 30.25H57C56.5417 27.0833 55.625 24.3125 54.25 21.9375C52.875 19.5208 50.9167 17.6458 48.375 16.3125C45.875 14.9375 42.625 14.25 38.625 14.25C35.25 14.25 32.2708 14.9167 29.6875 16.25C27.1042 17.5833 24.9375 19.5208 23.1875 22.0625C21.4375 24.6042 20.1042 27.75 19.1875 31.5C18.3125 35.25 17.875 39.5417 17.875 44.375V50.5C17.875 55.375 18.375 59.7083 19.375 63.5C20.375 67.25 21.8125 70.4167 23.6875 73C25.6042 75.5417 27.9583 77.4792 30.75 78.8125C33.5833 80.1042 36.7917 80.75 40.375 80.75C43.625 80.75 46.3125 80.4792 48.4375 79.9375C50.6042 79.3542 52.3333 78.6667 53.625 77.875C54.9167 77.0833 55.9167 76.3125 56.625 75.5625V58.5H38.5625V45.9375H73.8125Z" fill="white"/>
</svg>
