<svg width="71" height="91" viewBox="0 0 71 91" fill="none" xmlns="http://www.w3.org/2000/svg">
<path d="M0.9375 0H34C40.9167 0 46.8542 1.04167 51.8125 3.125C56.7708 5.20833 60.5833 8.29167 63.25 12.375C65.9167 16.4583 67.25 21.4792 67.25 27.4375C67.25 32.1458 66.4167 36.2292 64.75 39.6875C63.0833 43.1458 60.7292 46.0417 57.6875 48.375C54.6875 50.7083 51.1458 52.5417 47.0625 53.875L41.6875 56.625H12.5L12.375 43.0625H34.1875C37.7292 43.0625 40.6667 42.4375 43 41.1875C45.3333 39.9375 47.0833 38.2083 48.25 36C49.4583 33.7917 50.0625 31.2708 50.0625 28.4375C50.0625 25.3958 49.4792 22.7708 48.3125 20.5625C47.1458 18.3125 45.375 16.5833 43 15.375C40.625 14.1667 37.625 13.5625 34 13.5625H18.125V91H0.9375V0ZM52.3125 91L31.25 50.25L49.4375 50.1875L70.75 90.125V91H52.3125Z" fill="white"/>
</svg>
