<svg width="70" height="91" viewBox="0 0 70 91" fill="none" xmlns="http://www.w3.org/2000/svg">
<path d="M0.0625 0H33.125C40.0417 0 45.9792 1.04167 50.9375 3.125C55.8958 5.20833 59.7083 8.29167 62.375 12.375C65.0417 16.4583 66.375 21.4792 66.375 27.4375C66.375 32.1458 65.5417 36.2292 63.875 39.6875C62.2083 43.1458 59.8542 46.0417 56.8125 48.375C53.8125 50.7083 50.2708 52.5417 46.1875 53.875L40.8125 56.625H11.625L11.5 43.0625H33.3125C36.8542 43.0625 39.7917 42.4375 42.125 41.1875C44.4583 39.9375 46.2083 38.2083 47.375 36C48.5833 33.7917 49.1875 31.2708 49.1875 28.4375C49.1875 25.3958 48.6042 22.7708 47.4375 20.5625C46.2708 18.3125 44.5 16.5833 42.125 15.375C39.75 14.1667 36.75 13.5625 33.125 13.5625H17.25V91H0.0625V0ZM51.4375 91L30.375 50.25L48.5625 50.1875L69.875 90.125V91H51.4375Z" fill="white"/>
</svg>
