<svg width="69" height="93" viewBox="0 0 69 93" fill="none" xmlns="http://www.w3.org/2000/svg">
<path d="M51.6875 0H68.875V60.4375C68.875 67.3958 67.375 73.25 64.375 78C61.375 82.7083 57.2917 86.2708 52.125 88.6875C46.9583 91.0625 41.0833 92.25 34.5 92.25C27.8333 92.25 21.8958 91.0625 16.6875 88.6875C11.4792 86.2708 7.39583 82.7083 4.4375 78C1.47917 73.25 0 67.3958 0 60.4375V0H17.1875V60.4375C17.1875 64.6875 17.8958 68.1667 19.3125 70.875C20.7292 73.5417 22.7292 75.5208 25.3125 76.8125C27.8958 78.1042 30.9583 78.75 34.5 78.75C38.0833 78.75 41.1458 78.1042 43.6875 76.8125C46.2708 75.5208 48.25 73.5417 49.625 70.875C51 68.1667 51.6875 64.6875 51.6875 60.4375V0Z" fill="white"/>
</svg>
