<svg width="50" height="50" viewBox="0 0 50 50" fill="none" xmlns="http://www.w3.org/2000/svg">
<g clip-path="url(#clip0_112_866)">
<g filter="url(#filter0_bdi_112_866)">
<g clip-path="url(#clip1_112_866)">
<rect x="1" y="1" width="48" height="48" rx="12" fill="url(#paint0_linear_112_866)" fill-opacity="0.04" shape-rendering="crispEdges"/>
<g style="mix-blend-mode:plus-lighter" opacity="0.5" filter="url(#filter1_f_112_866)">
<path d="M23.4084 10.2004L24.2753 11.8286C24.4702 12.1291 24.6813 12.395 24.93 12.6427C25.6591 13.3627 26.3387 14.1312 26.9642 14.9428C28.433 16.8715 29.4237 19.0133 30.1312 21.3297C30.5555 22.7447 30.7859 24.1962 30.8032 25.664C30.8742 30.0521 29.3699 33.8201 26.3369 36.9516C25.8435 37.4482 25.3105 37.9037 24.7432 38.3138C24.4428 38.3138 24.3007 38.0834 24.1768 37.8712C23.9513 37.4778 23.8012 37.0458 23.7342 36.5973C23.6277 36.0664 23.5576 35.5355 23.5921 34.9874V34.7397C23.5678 34.6869 23.3028 10.3253 23.4084 10.2004Z" fill="#599636"/>
<path d="M23.4085 10.1466C23.3729 10.0756 23.3374 10.1294 23.3019 10.1639C23.3191 10.5191 23.1953 10.8358 23.0014 11.1383C22.7883 11.4388 22.5061 11.6692 22.2229 11.9169C20.6495 13.2791 19.4111 14.9245 18.4194 16.7649C17.0998 19.2416 16.4197 21.896 16.2269 24.6905C16.1385 25.6985 16.5456 29.2553 16.8633 30.2815C17.7302 33.006 19.2873 35.2889 21.3042 37.2703C21.7996 37.7473 22.3295 38.1899 22.8776 38.6152C23.037 38.6152 23.0542 38.4731 23.0908 38.3676C23.1606 38.1417 23.2139 37.911 23.2501 37.6773L23.6054 35.0239L23.4085 10.1466Z" fill="#6CAC48"/>
<path d="M24.2753 39.3918C24.3108 38.9858 24.5057 38.6488 24.7179 38.3128C24.5047 38.2245 24.3464 38.0489 24.2225 37.853C24.1157 37.6675 24.0274 37.472 23.9586 37.2693C23.7109 36.5263 23.6582 35.7467 23.5871 34.9874V34.5276C23.4988 34.5986 23.4805 35.1996 23.4805 35.2889C23.4289 36.0914 23.3224 36.8894 23.1618 37.6773C23.109 37.9961 23.0735 38.3138 22.8776 38.597C22.8776 38.6325 22.8776 38.6681 22.8948 38.7208C23.2136 39.6588 23.3008 40.6139 23.3546 41.5874V41.9427C23.3546 42.367 23.3374 42.2776 23.6896 42.4197C23.8317 42.4725 23.9901 42.4908 24.1322 42.5964C24.2388 42.5964 24.256 42.5081 24.256 42.437L24.2032 41.8533V40.2252C24.186 39.941 24.2388 39.6588 24.2743 39.3928L24.2753 39.3918Z" fill="#C2BFBF"/>
</g>
<g filter="url(#filter2_f_112_866)">
<ellipse cx="25.5" cy="48.5" rx="11.5" ry="6.5" fill="#6CAC48"/>
</g>
<path d="M23.4084 10.2004L24.2753 11.8286C24.4702 12.1291 24.6813 12.395 24.93 12.6427C25.6591 13.3627 26.3387 14.1312 26.9642 14.9428C28.433 16.8715 29.4237 19.0133 30.1312 21.3297C30.5555 22.7447 30.7859 24.1962 30.8032 25.664C30.8742 30.0521 29.3699 33.8201 26.3369 36.9516C25.8435 37.4482 25.3105 37.9037 24.7432 38.3138C24.4428 38.3138 24.3007 38.0834 24.1768 37.8712C23.9513 37.4778 23.8012 37.0458 23.7342 36.5973C23.6277 36.0664 23.5576 35.5355 23.5921 34.9874V34.7397C23.5678 34.6869 23.3028 10.3253 23.4084 10.2004Z" fill="#599636"/>
<path d="M23.4085 10.1466C23.3729 10.0756 23.3374 10.1294 23.3019 10.1639C23.3191 10.5191 23.1953 10.8358 23.0014 11.1383C22.7883 11.4388 22.5061 11.6692 22.2229 11.9169C20.6495 13.2791 19.4111 14.9245 18.4194 16.7649C17.0998 19.2416 16.4197 21.896 16.2269 24.6905C16.1385 25.6985 16.5456 29.2553 16.8633 30.2815C17.7302 33.006 19.2873 35.2889 21.3042 37.2703C21.7996 37.7474 22.3295 38.1899 22.8776 38.6152C23.037 38.6152 23.0542 38.4731 23.0908 38.3676C23.1606 38.1417 23.2139 37.911 23.2501 37.6773L23.6054 35.0239L23.4085 10.1466Z" fill="#6CAC48"/>
<path d="M24.2753 39.3918C24.3108 38.9858 24.5057 38.6488 24.7179 38.3128C24.5047 38.2245 24.3464 38.0489 24.2225 37.853C24.1157 37.6675 24.0274 37.472 23.9586 37.2693C23.7109 36.5263 23.6582 35.7467 23.5871 34.9874V34.5276C23.4988 34.5986 23.4805 35.1996 23.4805 35.2889C23.4289 36.0914 23.3224 36.8894 23.1618 37.6773C23.109 37.9961 23.0735 38.3138 22.8776 38.597C22.8776 38.6325 22.8776 38.6681 22.8948 38.7208C23.2136 39.6588 23.3008 40.6139 23.3546 41.5874V41.9427C23.3546 42.367 23.3374 42.2776 23.6896 42.4197C23.8317 42.4725 23.9901 42.4908 24.1322 42.5964C24.2388 42.5964 24.256 42.5081 24.256 42.437L24.2032 41.8533V40.2252C24.186 39.941 24.2388 39.6588 24.2743 39.3928L24.2753 39.3918Z" fill="#C2BFBF"/>
</g>
<rect x="1" y="1" width="48" height="48" rx="12" stroke="url(#paint1_linear_112_866)" stroke-opacity="0.5" stroke-width="0.8" shape-rendering="crispEdges"/>
</g>
<g style="mix-blend-mode:screen" filter="url(#filter3_f_112_866)">
<circle cx="18" cy="18" r="9" fill="#6CAC48"/>
</g>
</g>
<rect x="0.5" y="0.5" width="49" height="49" rx="12.5" stroke="url(#paint2_linear_112_866)"/>
<defs>
<filter id="filter0_bdi_112_866" x="-19.4" y="-19.4" width="92.8" height="88.8" filterUnits="userSpaceOnUse" color-interpolation-filters="sRGB">
<feFlood flood-opacity="0" result="BackgroundImageFix"/>
<feGaussianBlur in="BackgroundImageFix" stdDeviation="10"/>
<feComposite in2="SourceAlpha" operator="in" result="effect1_backgroundBlur_112_866"/>
<feColorMatrix in="SourceAlpha" type="matrix" values="0 0 0 0 0 0 0 0 0 0 0 0 0 0 0 0 0 0 127 0" result="hardAlpha"/>
<feOffset dx="8" dy="4"/>
<feGaussianBlur stdDeviation="8"/>
<feComposite in2="hardAlpha" operator="out"/>
<feColorMatrix type="matrix" values="0 0 0 0 0 0 0 0 0 0 0 0 0 0 0 0 0 0 0.08 0"/>
<feBlend mode="normal" in2="effect1_backgroundBlur_112_866" result="effect2_dropShadow_112_866"/>
<feBlend mode="normal" in="SourceGraphic" in2="effect2_dropShadow_112_866" result="shape"/>
<feColorMatrix in="SourceAlpha" type="matrix" values="0 0 0 0 0 0 0 0 0 0 0 0 0 0 0 0 0 0 127 0" result="hardAlpha"/>
<feOffset/>
<feGaussianBlur stdDeviation="4"/>
<feComposite in2="hardAlpha" operator="arithmetic" k2="-1" k3="1"/>
<feColorMatrix type="matrix" values="0 0 0 0 0.826389 0 0 0 0 0.942083 0 0 0 0 0.991667 0 0 0 0.32 0"/>
<feBlend mode="normal" in2="shape" result="effect3_innerShadow_112_866"/>
</filter>
<filter id="filter1_f_112_866" x="-7" y="-7" width="64" height="64" filterUnits="userSpaceOnUse" color-interpolation-filters="sRGB">
<feFlood flood-opacity="0" result="BackgroundImageFix"/>
<feBlend mode="normal" in="SourceGraphic" in2="BackgroundImageFix" result="shape"/>
<feGaussianBlur stdDeviation="6" result="effect1_foregroundBlur_112_866"/>
</filter>
<filter id="filter2_f_112_866" x="-4" y="24" width="59" height="49" filterUnits="userSpaceOnUse" color-interpolation-filters="sRGB">
<feFlood flood-opacity="0" result="BackgroundImageFix"/>
<feBlend mode="normal" in="SourceGraphic" in2="BackgroundImageFix" result="shape"/>
<feGaussianBlur stdDeviation="9" result="effect1_foregroundBlur_112_866"/>
</filter>
<filter id="filter3_f_112_866" x="-11" y="-11" width="58" height="58" filterUnits="userSpaceOnUse" color-interpolation-filters="sRGB">
<feFlood flood-opacity="0" result="BackgroundImageFix"/>
<feBlend mode="normal" in="SourceGraphic" in2="BackgroundImageFix" result="shape"/>
<feGaussianBlur stdDeviation="10" result="effect1_foregroundBlur_112_866"/>
</filter>
<linearGradient id="paint0_linear_112_866" x1="1" y1="1" x2="49" y2="49" gradientUnits="userSpaceOnUse">
<stop stop-color="#6CAC48"/>
<stop offset="1" stop-color="white" stop-opacity="0"/>
</linearGradient>
<linearGradient id="paint1_linear_112_866" x1="2" y1="-5.85375e-08" x2="47.5" y2="49" gradientUnits="userSpaceOnUse">
<stop stop-color="#6CAC48"/>
<stop offset="1" stop-color="#599636"/>
</linearGradient>
<linearGradient id="paint2_linear_112_866" x1="42.6835" y1="49" x2="7.31652" y2="0.999997" gradientUnits="userSpaceOnUse">
<stop stop-color="#6CAC48"/>
<stop offset="1" stop-color="#599636"/>
</linearGradient>
<clipPath id="clip0_112_866">
<rect x="1" y="1" width="48" height="48" rx="12" fill="white"/>
</clipPath>
<clipPath id="clip1_112_866">
<rect x="1" y="1" width="48" height="48" rx="12" fill="white"/>
</clipPath>
</defs>
</svg>
